<svg width="288" height="36" viewBox="0 0 288 36" fill="none" xmlns="http://www.w3.org/2000/svg">
<path d="M13.36 35.48C11.952 35.48 10.544 35.368 9.13602 35.144C7.72802 34.952 6.40002 34.648 5.15202 34.232C3.90402 33.784 2.78402 33.24 1.79202 32.6C1.21602 32.216 0.816022 31.752 0.592022 31.208C0.368022 30.664 0.288022 30.136 0.352022 29.624C0.448022 29.08 0.656022 28.616 0.976022 28.232C1.32802 27.816 1.76002 27.56 2.27202 27.464C2.78402 27.368 3.34402 27.512 3.95202 27.896C5.36002 28.728 6.84802 29.336 8.41602 29.72C9.98402 30.104 11.632 30.296 13.36 30.296C15.888 30.296 17.728 29.88 18.88 29.048C20.032 28.184 20.608 27.08 20.608 25.736C20.608 24.616 20.192 23.736 19.36 23.096C18.56 22.456 17.168 21.928 15.184 21.512L9.90402 20.408C6.86402 19.768 4.59202 18.696 3.08802 17.192C1.61602 15.656 0.880022 13.64 0.880022 11.144C0.880022 9.576 1.20002 8.152 1.84002 6.872C2.48002 5.592 3.37602 4.488 4.52802 3.56C5.71202 2.632 7.10402 1.928 8.70402 1.448C10.336 0.935997 12.128 0.679997 14.08 0.679997C16 0.679997 17.824 0.919997 19.552 1.4C21.28 1.88 22.832 2.584 24.208 3.512C24.72 3.864 25.056 4.296 25.216 4.808C25.408 5.32 25.456 5.832 25.36 6.344C25.264 6.824 25.04 7.24 24.688 7.592C24.336 7.944 23.888 8.152 23.344 8.216C22.832 8.28 22.24 8.12 21.568 7.736C20.384 7.064 19.184 6.584 17.968 6.296C16.752 6.008 15.44 5.864 14.032 5.864C12.56 5.864 11.296 6.072 10.24 6.488C9.18402 6.904 8.36802 7.496 7.79202 8.264C7.24802 9 6.97602 9.88 6.97602 10.904C6.97602 12.056 7.36002 12.984 8.12802 13.688C8.89602 14.36 10.208 14.888 12.064 15.272L17.296 16.376C20.464 17.048 22.816 18.104 24.352 19.544C25.92 20.984 26.704 22.904 26.704 25.304C26.704 26.84 26.384 28.232 25.744 29.48C25.136 30.728 24.24 31.8 23.056 32.696C21.904 33.592 20.512 34.28 18.88 34.76C17.248 35.24 15.408 35.48 13.36 35.48Z" fill="black"/>
<path d="M32.4573 35.336C31.4973 35.336 30.7613 35.048 30.2493 34.472C29.7373 33.896 29.4813 33.096 29.4813 32.072V14.456C29.4813 13.4 29.7373 12.6 30.2493 12.056C30.7613 11.48 31.4973 11.192 32.4573 11.192C33.4173 11.192 34.1533 11.48 34.6653 12.056C35.2093 12.6 35.4813 13.4 35.4813 14.456V32.072C35.4813 33.096 35.2253 33.896 34.7133 34.472C34.2013 35.048 33.4493 35.336 32.4573 35.336ZM32.4573 6.728C31.3373 6.728 30.4573 6.456 29.8173 5.912C29.2093 5.336 28.9053 4.552 28.9053 3.56C28.9053 2.536 29.2093 1.752 29.8173 1.208C30.4573 0.663998 31.3373 0.391998 32.4573 0.391998C33.6093 0.391998 34.4893 0.663998 35.0973 1.208C35.7053 1.752 36.0093 2.536 36.0093 3.56C36.0093 4.552 35.7053 5.336 35.0973 5.912C34.4893 6.456 33.6093 6.728 32.4573 6.728Z" fill="black"/>
<path d="M47.8116 35.48C45.1556 35.48 43.1556 34.728 41.8116 33.224C40.4676 31.688 39.7956 29.448 39.7956 26.504V3.8C39.7956 2.808 40.0516 2.056 40.5636 1.544C41.0756 1.032 41.8116 0.775996 42.7716 0.775996C43.7316 0.775996 44.4676 1.032 44.9796 1.544C45.5236 2.056 45.7956 2.808 45.7956 3.8V26.216C45.7956 27.688 46.0996 28.776 46.7076 29.48C47.3476 30.184 48.2436 30.536 49.3956 30.536C49.6516 30.536 49.8916 30.536 50.1156 30.536C50.3396 30.504 50.5636 30.472 50.7876 30.44C51.2356 30.376 51.5396 30.504 51.6996 30.824C51.8596 31.112 51.9396 31.72 51.9396 32.648C51.9396 33.448 51.7796 34.072 51.4596 34.52C51.1396 34.968 50.6116 35.24 49.8756 35.336C49.5556 35.368 49.2196 35.4 48.8676 35.432C48.5156 35.464 48.1636 35.48 47.8116 35.48Z" fill="black"/>
<path d="M62.0984 35.384C61.2984 35.384 60.5944 35.176 59.9864 34.76C59.4104 34.344 58.9304 33.704 58.5464 32.84L50.9144 15.128C50.6264 14.424 50.5144 13.768 50.5784 13.16C50.6744 12.552 50.9624 12.072 51.4424 11.72C51.9544 11.336 52.6424 11.144 53.5064 11.144C54.2424 11.144 54.8344 11.32 55.2824 11.672C55.7304 11.992 56.1304 12.616 56.4824 13.544L62.9624 29.72H61.5224L68.1944 13.496C68.5464 12.6 68.9464 11.992 69.3944 11.672C69.8744 11.32 70.5144 11.144 71.3144 11.144C72.0184 11.144 72.5784 11.336 72.9944 11.72C73.4104 12.072 73.6664 12.552 73.7624 13.16C73.8584 13.736 73.7464 14.376 73.4264 15.08L65.6504 32.84C65.2984 33.704 64.8184 34.344 64.2104 34.76C63.6344 35.176 62.9304 35.384 62.0984 35.384Z" fill="black"/>
<path d="M78.9629 35.336C78.0029 35.336 77.2669 35.048 76.7549 34.472C76.2429 33.896 75.9869 33.096 75.9869 32.072V14.456C75.9869 13.4 76.2429 12.6 76.7549 12.056C77.2669 11.48 78.0029 11.192 78.9629 11.192C79.9229 11.192 80.6589 11.48 81.1709 12.056C81.7149 12.6 81.9869 13.4 81.9869 14.456V32.072C81.9869 33.096 81.7309 33.896 81.2189 34.472C80.7069 35.048 79.9549 35.336 78.9629 35.336ZM78.9629 6.728C77.8429 6.728 76.9629 6.456 76.3229 5.912C75.7149 5.336 75.4109 4.552 75.4109 3.56C75.4109 2.536 75.7149 1.752 76.3229 1.208C76.9629 0.663998 77.8429 0.391998 78.9629 0.391998C80.1149 0.391998 80.9949 0.663998 81.6029 1.208C82.2109 1.752 82.5149 2.536 82.5149 3.56C82.5149 4.552 82.2109 5.336 81.6029 5.912C80.9949 6.456 80.1149 6.728 78.9629 6.728Z" fill="black"/>
<path d="M97.0053 35.48C94.5733 35.48 92.4613 34.984 90.6693 33.992C88.8773 33 87.4853 31.592 86.4933 29.768C85.5013 27.912 85.0053 25.736 85.0053 23.24C85.0053 21.352 85.2773 19.672 85.8213 18.2C86.3973 16.696 87.2133 15.416 88.2693 14.36C89.3253 13.272 90.5893 12.456 92.0613 11.912C93.5333 11.336 95.1813 11.048 97.0053 11.048C99.4373 11.048 101.549 11.544 103.341 12.536C105.133 13.528 106.525 14.936 107.517 16.76C108.509 18.584 109.005 20.744 109.005 23.24C109.005 25.128 108.717 26.824 108.141 28.328C107.597 29.832 106.797 31.128 105.741 32.216C104.685 33.272 103.421 34.088 101.949 34.664C100.477 35.208 98.8293 35.48 97.0053 35.48ZM97.0053 30.92C98.1893 30.92 99.2293 30.632 100.125 30.056C101.021 29.48 101.709 28.632 102.189 27.512C102.701 26.36 102.957 24.936 102.957 23.24C102.957 20.68 102.413 18.776 101.325 17.528C100.237 16.248 98.7973 15.608 97.0053 15.608C95.8213 15.608 94.7813 15.896 93.8853 16.472C92.9893 17.016 92.2853 17.864 91.7733 19.016C91.2933 20.136 91.0533 21.544 91.0533 23.24C91.0533 25.768 91.5973 27.688 92.6853 29C93.7733 30.28 95.2133 30.92 97.0053 30.92Z" fill="black"/>
<path d="M126.797 35.384C125.805 35.384 125.037 35.112 124.493 34.568C123.981 33.992 123.725 33.208 123.725 32.216V4.28C123.725 3.256 123.997 2.488 124.541 1.976C125.085 1.432 125.853 1.16 126.845 1.16H138.413C142.125 1.16 144.989 2.056 147.005 3.848C149.021 5.608 150.029 8.088 150.029 11.288C150.029 13.368 149.565 15.16 148.637 16.664C147.741 18.168 146.429 19.32 144.701 20.12C142.973 20.92 140.877 21.32 138.413 21.32L138.845 20.6H140.429C141.741 20.6 142.877 20.92 143.837 21.56C144.829 22.2 145.693 23.208 146.429 24.584L150.029 31.256C150.413 31.928 150.589 32.584 150.557 33.224C150.525 33.864 150.285 34.392 149.837 34.808C149.389 35.192 148.733 35.384 147.869 35.384C147.005 35.384 146.301 35.208 145.757 34.856C145.213 34.472 144.733 33.896 144.317 33.128L139.469 24.2C138.893 23.112 138.205 22.392 137.405 22.04C136.637 21.656 135.645 21.464 134.429 21.464H129.869V32.216C129.869 33.208 129.613 33.992 129.101 34.568C128.589 35.112 127.821 35.384 126.797 35.384ZM129.869 16.904H137.357C139.565 16.904 141.229 16.456 142.349 15.56C143.501 14.632 144.077 13.256 144.077 11.432C144.077 9.64 143.501 8.296 142.349 7.4C141.229 6.472 139.565 6.008 137.357 6.008H129.869V16.904Z" fill="black"/>
<path d="M164.23 35.48C161.798 35.48 159.686 34.984 157.894 33.992C156.102 33 154.71 31.592 153.718 29.768C152.726 27.912 152.23 25.736 152.23 23.24C152.23 21.352 152.502 19.672 153.046 18.2C153.622 16.696 154.438 15.416 155.494 14.36C156.55 13.272 157.814 12.456 159.286 11.912C160.758 11.336 162.406 11.048 164.23 11.048C166.662 11.048 168.774 11.544 170.566 12.536C172.358 13.528 173.75 14.936 174.742 16.76C175.734 18.584 176.23 20.744 176.23 23.24C176.23 25.128 175.942 26.824 175.366 28.328C174.822 29.832 174.022 31.128 172.966 32.216C171.91 33.272 170.646 34.088 169.174 34.664C167.702 35.208 166.054 35.48 164.23 35.48ZM164.23 30.92C165.414 30.92 166.454 30.632 167.35 30.056C168.246 29.48 168.934 28.632 169.414 27.512C169.926 26.36 170.182 24.936 170.182 23.24C170.182 20.68 169.638 18.776 168.55 17.528C167.462 16.248 166.022 15.608 164.23 15.608C163.046 15.608 162.006 15.896 161.11 16.472C160.214 17.016 159.51 17.864 158.998 19.016C158.518 20.136 158.278 21.544 158.278 23.24C158.278 25.768 158.822 27.688 159.91 29C160.998 30.28 162.438 30.92 164.23 30.92Z" fill="black"/>
<path d="M192.798 35.48C190.814 35.48 189.07 34.984 187.566 33.992C186.094 33 185.118 31.672 184.638 30.008L185.166 28.808V32.312C185.166 33.304 184.91 34.072 184.398 34.616C183.886 35.128 183.166 35.384 182.238 35.384C181.278 35.384 180.542 35.128 180.03 34.616C179.518 34.072 179.262 33.304 179.262 32.312V3.8C179.262 2.808 179.518 2.056 180.03 1.544C180.542 1.032 181.278 0.775996 182.238 0.775996C183.198 0.775996 183.934 1.032 184.446 1.544C184.99 2.056 185.262 2.808 185.262 3.8V16.28H184.686C185.198 14.712 186.19 13.448 187.662 12.488C189.134 11.528 190.846 11.048 192.798 11.048C194.878 11.048 196.686 11.544 198.222 12.536C199.758 13.528 200.958 14.936 201.822 16.76C202.686 18.552 203.118 20.712 203.118 23.24C203.118 25.736 202.686 27.912 201.822 29.768C200.958 31.592 199.742 33 198.174 33.992C196.638 34.984 194.846 35.48 192.798 35.48ZM191.118 30.92C192.302 30.92 193.342 30.632 194.238 30.056C195.134 29.48 195.822 28.632 196.302 27.512C196.814 26.36 197.07 24.936 197.07 23.24C197.07 20.68 196.526 18.776 195.438 17.528C194.35 16.248 192.91 15.608 191.118 15.608C189.934 15.608 188.894 15.896 187.998 16.472C187.102 17.016 186.398 17.864 185.886 19.016C185.406 20.136 185.166 21.544 185.166 23.24C185.166 25.768 185.71 27.688 186.798 29C187.886 30.28 189.326 30.92 191.118 30.92Z" fill="black"/>
<path d="M217.691 35.48C215.035 35.48 212.747 34.984 210.827 33.992C208.907 33 207.419 31.592 206.363 29.768C205.339 27.944 204.827 25.784 204.827 23.288C204.827 20.856 205.323 18.728 206.315 16.904C207.339 15.08 208.731 13.656 210.491 12.632C212.283 11.576 214.315 11.048 216.587 11.048C218.251 11.048 219.739 11.32 221.051 11.864C222.395 12.408 223.531 13.192 224.459 14.216C225.419 15.24 226.139 16.488 226.619 17.96C227.131 19.4 227.387 21.032 227.387 22.856C227.387 23.432 227.179 23.88 226.763 24.2C226.379 24.488 225.819 24.632 225.083 24.632H209.675V21.176H223.163L222.395 21.896C222.395 20.424 222.171 19.192 221.723 18.2C221.307 17.208 220.683 16.456 219.851 15.944C219.051 15.4 218.043 15.128 216.827 15.128C215.483 15.128 214.331 15.448 213.371 16.088C212.443 16.696 211.723 17.576 211.211 18.728C210.731 19.848 210.491 21.192 210.491 22.76V23.096C210.491 25.72 211.099 27.688 212.315 29C213.563 30.28 215.387 30.92 217.787 30.92C218.619 30.92 219.547 30.824 220.571 30.632C221.627 30.408 222.619 30.04 223.547 29.528C224.219 29.144 224.811 28.984 225.323 29.048C225.835 29.08 226.235 29.256 226.523 29.576C226.843 29.896 227.035 30.296 227.099 30.776C227.163 31.224 227.067 31.688 226.811 32.168C226.587 32.648 226.187 33.064 225.611 33.416C224.491 34.12 223.195 34.648 221.723 35C220.283 35.32 218.939 35.48 217.691 35.48Z" fill="black"/>
<path d="M233.291 35.384C232.299 35.384 231.531 35.128 230.987 34.616C230.475 34.072 230.219 33.304 230.219 32.312V14.168C230.219 13.176 230.475 12.424 230.987 11.912C231.499 11.4 232.219 11.144 233.147 11.144C234.075 11.144 234.795 11.4 235.307 11.912C235.819 12.424 236.075 13.176 236.075 14.168V17.192H235.595C236.043 15.272 236.923 13.816 238.235 12.824C239.547 11.832 241.291 11.24 243.467 11.048C244.139 10.984 244.667 11.16 245.051 11.576C245.467 11.96 245.707 12.568 245.771 13.4C245.835 14.2 245.643 14.856 245.195 15.368C244.779 15.848 244.139 16.136 243.275 16.232L242.219 16.328C240.267 16.52 238.795 17.128 237.803 18.152C236.811 19.144 236.315 20.552 236.315 22.376V32.312C236.315 33.304 236.059 34.072 235.547 34.616C235.035 35.128 234.283 35.384 233.291 35.384Z" fill="black"/>
<path d="M259.207 35.48C257.127 35.48 255.383 35.128 253.975 34.424C252.599 33.72 251.575 32.696 250.903 31.352C250.231 29.976 249.895 28.28 249.895 26.264V16.04H247.399C246.631 16.04 246.039 15.848 245.623 15.464C245.207 15.048 244.999 14.488 244.999 13.784C244.999 13.048 245.207 12.488 245.623 12.104C246.039 11.72 246.631 11.528 247.399 11.528H249.895V7.16C249.895 6.168 250.151 5.416 250.663 4.904C251.207 4.392 251.959 4.136 252.919 4.136C253.879 4.136 254.615 4.392 255.127 4.904C255.639 5.416 255.895 6.168 255.895 7.16V11.528H260.983C261.751 11.528 262.343 11.72 262.759 12.104C263.175 12.488 263.383 13.048 263.383 13.784C263.383 14.488 263.175 15.048 262.759 15.464C262.343 15.848 261.751 16.04 260.983 16.04H255.895V25.928C255.895 27.464 256.231 28.616 256.903 29.384C257.575 30.152 258.663 30.536 260.167 30.536C260.711 30.536 261.191 30.488 261.607 30.392C262.023 30.296 262.391 30.232 262.711 30.2C263.095 30.168 263.415 30.296 263.671 30.584C263.927 30.84 264.055 31.384 264.055 32.216C264.055 32.856 263.943 33.432 263.719 33.944C263.527 34.424 263.159 34.76 262.615 34.952C262.199 35.08 261.655 35.192 260.983 35.288C260.311 35.416 259.719 35.48 259.207 35.48Z" fill="black"/>
<path d="M275.427 35.48C272.995 35.48 270.883 34.984 269.091 33.992C267.299 33 265.907 31.592 264.915 29.768C263.923 27.912 263.427 25.736 263.427 23.24C263.427 21.352 263.699 19.672 264.243 18.2C264.819 16.696 265.635 15.416 266.691 14.36C267.747 13.272 269.011 12.456 270.483 11.912C271.955 11.336 273.603 11.048 275.427 11.048C277.859 11.048 279.971 11.544 281.763 12.536C283.555 13.528 284.947 14.936 285.939 16.76C286.931 18.584 287.427 20.744 287.427 23.24C287.427 25.128 287.139 26.824 286.563 28.328C286.019 29.832 285.219 31.128 284.163 32.216C283.107 33.272 281.843 34.088 280.371 34.664C278.899 35.208 277.251 35.48 275.427 35.48ZM275.427 30.92C276.611 30.92 277.651 30.632 278.547 30.056C279.443 29.48 280.131 28.632 280.611 27.512C281.123 26.36 281.379 24.936 281.379 23.24C281.379 20.68 280.835 18.776 279.747 17.528C278.659 16.248 277.219 15.608 275.427 15.608C274.243 15.608 273.203 15.896 272.307 16.472C271.411 17.016 270.707 17.864 270.195 19.016C269.715 20.136 269.475 21.544 269.475 23.24C269.475 25.768 270.019 27.688 271.107 29C272.195 30.28 273.635 30.92 275.427 30.92Z" fill="black"/>
</svg>
